# xmcd
#
# Track frame offsets: 
#        183
#        21755
#        39933
#
# Disc length: 817 seconds
#
# Revision: 2
# Processed by: cddbd v1.5.1PL0 Copyright (c) Steve Scherf et al.
# Submitted via: ExactAudioCopy v0.95b3
#
DISCID=17032f03
DTITLE=Stevie Wonder - Keep our love alive (Single)
DYEAR=1998
DGENRE=Rock
TTITLE0=Keep our love alive (12" Version)
TTITLE1=Keep our love alive (Single Version)
TTITLE2=Keep our love alive (Instrumental)
EXTD=YEAR: 1998
EXTT0=
EXTT1=
EXTT2=
PLAYORDER=
